<svg width="104" height="103" viewBox="0 0 104 103" fill="none" xmlns="http://www.w3.org/2000/svg">
<g id="logos:facebook" clip-path="url(#clip0_33_1017)">
<path id="Vector" d="M104 51.3048C104 23.1589 80.7186 0.341797 52 0.341797C23.2814 0.341797 0 23.1589 0 51.3048C0 76.7416 19.0157 97.8256 43.875 101.649V66.0362H30.6719V51.3048H43.875V40.077C43.875 27.3044 51.6384 20.2492 63.5164 20.2492C69.2055 20.2492 75.1562 21.2446 75.1562 21.2446V33.7862H68.5994C62.1396 33.7862 60.125 37.7148 60.125 41.7452V51.3048H74.5469L72.2414 66.0362H60.125V101.649C84.9843 97.8256 104 76.742 104 51.3048Z" fill="#1877F2"/>
<path id="Vector_2" d="M72.2414 66.0361L74.5469 51.3046H60.125V41.745C60.125 37.7142 62.1396 33.7861 68.5994 33.7861H75.1562V21.2444C75.1562 21.2444 69.2055 20.249 63.516 20.249C51.6384 20.249 43.875 27.3042 43.875 40.0768V51.3046H30.6719V66.0361H43.875V101.648C46.5628 102.061 49.2794 102.268 52 102.268C54.7206 102.268 57.4372 102.061 60.125 101.648V66.0361H72.2414Z" fill="#D1D1D1"/>
</g>
<defs>
<clipPath id="clip0_33_1017">
<rect width="104" height="101.926" fill="white" transform="translate(0 0.341797)"/>
</clipPath>
</defs>
</svg>
