<svg width="105" height="78" viewBox="0 0 105 78" fill="none" xmlns="http://www.w3.org/2000/svg">
<g id="logos:google-gmail">
<path id="Vector" d="M23.8637 77.6188V37.9397L11.2822 26.6819L0 20.4346V70.6165C0 74.4909 3.20947 77.6188 7.15928 77.6188H23.8637Z" fill="#4285F4"/>
<path id="Vector_2" d="M81.1363 77.6184H97.8407C101.802 77.6184 105 74.4789 105 70.6161V20.4346L92.2212 27.5901L81.1363 37.9393V77.6184Z" fill="#34A853"/>
<path id="Vector_3" d="M23.8637 37.9391L22.1517 22.4353L23.8637 7.59668L52.5 28.6032L81.1363 7.59668L83.0513 21.6342L81.1363 37.9391L52.5 58.9456L23.8637 37.9391Z" fill="#EA4335"/>
<path id="Vector_4" d="M81.1363 7.59703V37.9394L105 20.4343V11.098C105 2.43888 94.8938 -2.49744 87.8186 2.69562L81.1363 7.59703Z" fill="#FBBC04"/>
<path id="Vector_5" d="M0 20.4344L10.9754 28.4858L23.8637 37.9396V7.59722L17.1814 2.6958C10.0939 -2.49766 0 2.43906 0 11.0978V20.4344Z" fill="#C5221F"/>
</g>
</svg>
