<svg width="105" height="102" viewBox="0 0 105 102" fill="none" xmlns="http://www.w3.org/2000/svg">
<g id="skill-icons:instagram" clip-path="url(#clip0_33_1005)">
<g id="Group">
<path id="Vector" d="M80.3906 0.0888672H24.6094C11.018 0.0888672 0 10.6814 0 23.7481V77.3755C0 90.4422 11.018 101.035 24.6094 101.035H80.3906C93.982 101.035 105 90.4422 105 77.3755V23.7481C105 10.6814 93.982 0.0888672 80.3906 0.0888672Z" fill="url(#paint0_radial_33_1005)"/>
<path id="Vector_2" d="M80.3906 0.0888672H24.6094C11.018 0.0888672 0 10.6814 0 23.7481V77.3755C0 90.4422 11.018 101.035 24.6094 101.035H80.3906C93.982 101.035 105 90.4422 105 77.3755V23.7481C105 10.6814 93.982 0.0888672 80.3906 0.0888672Z" fill="url(#paint1_radial_33_1005)"/>
<path id="Vector_3" d="M52.5037 11.1299C41.3647 11.1299 39.9664 11.1768 35.5917 11.3681C31.2252 11.5605 28.2446 12.2249 25.6368 13.2001C22.9388 14.2072 20.6505 15.5545 18.3709 17.747C16.0892 19.939 14.6877 22.1389 13.6369 24.7316C12.6197 27.2394 11.9278 30.1061 11.7313 34.3021C11.5356 38.5083 11.4844 39.8529 11.4844 50.5623C11.4844 61.2716 11.5336 62.6115 11.7321 66.8173C11.9331 71.0152 12.6242 73.8808 13.6377 76.3878C14.6861 78.9817 16.0876 81.1816 18.368 83.3732C20.6473 85.5668 22.9355 86.9174 25.6315 87.9245C28.2413 88.8996 31.2223 89.564 35.588 89.7565C39.9632 89.9477 41.3602 89.9946 52.4988 89.9946C63.639 89.9946 65.0327 89.9477 69.4075 89.7565C73.774 89.564 76.7579 88.8996 79.3677 87.9245C82.0645 86.9174 84.3494 85.5668 86.6283 83.3732C88.91 81.1816 90.3111 78.9817 91.3623 76.389C92.3705 73.8808 93.0628 71.0144 93.2679 66.8181C93.4644 62.6123 93.5156 61.2716 93.5156 50.5623C93.5156 39.8529 93.4644 38.5091 93.2679 34.3029C93.0628 30.1049 92.3705 27.2398 91.3623 24.7327C90.3111 22.1389 88.91 19.939 86.6283 17.747C84.347 15.5538 82.0653 14.2064 79.3652 13.2005C76.7505 12.2249 73.7682 11.5601 69.4017 11.3681C65.0266 11.1768 63.6337 11.1299 52.491 11.1299H52.5037ZM48.8242 18.2359C49.9164 18.2343 51.135 18.2359 52.5037 18.2359C63.4553 18.2359 64.753 18.2738 69.0777 18.4627C73.0767 18.6385 75.2473 19.2809 76.6931 19.8207C78.6073 20.5352 79.9719 21.3897 81.4066 22.7702C82.8421 24.1503 83.7305 25.4646 84.4758 27.3049C85.0373 28.6929 85.7063 30.7796 85.8884 34.6242C86.0848 38.7812 86.1275 40.0296 86.1275 50.5532C86.1275 61.0768 86.0848 62.3256 85.8884 66.4821C85.7054 70.3268 85.0373 72.4135 84.4758 73.8019C83.7326 75.6422 82.8421 76.9525 81.4066 78.3318C79.971 79.712 78.6081 80.5661 76.6931 81.281C75.2489 81.8232 73.0767 82.4639 69.0777 82.6398C64.7538 82.8287 63.4553 82.8697 52.5037 82.8697C41.5517 82.8697 40.2536 82.8287 35.9301 82.6398C31.9311 82.4623 29.7605 81.82 28.3135 81.2802C26.3997 80.5653 25.0322 79.7112 23.5967 78.3311C22.1612 76.9509 21.2728 75.6398 20.5275 73.7987C19.966 72.4103 19.297 70.3236 19.1149 66.479C18.9185 62.3221 18.8791 61.0736 18.8791 50.5433C18.8791 40.0134 18.9185 38.7713 19.1149 34.6144C19.2979 30.7698 19.966 28.683 20.5275 27.2931C21.2711 25.4528 22.1612 24.1385 23.5971 22.7584C25.0327 21.3783 26.3997 20.5238 28.3139 19.8077C29.7597 19.2655 31.9311 18.6247 35.9301 18.4481C39.7138 18.2836 41.1801 18.2343 48.8242 18.2261V18.2359ZM74.3978 24.7832C71.6805 24.7832 69.476 26.9007 69.476 29.5135C69.476 32.1258 71.6805 34.2453 74.3978 34.2453C77.1151 34.2453 79.3197 32.1258 79.3197 29.5135C79.3197 26.9011 77.1151 24.7816 74.3978 24.7816V24.7832ZM52.5037 30.312C40.8717 30.312 31.4405 39.379 31.4405 50.5623C31.4405 61.7456 40.8717 70.8082 52.5037 70.8082C64.1361 70.8082 73.564 61.7456 73.564 50.5623C73.564 39.3794 64.1353 30.312 52.5029 30.312H52.5037ZM52.5037 37.418C60.0543 37.418 66.1758 43.3024 66.1758 50.5623C66.1758 57.8213 60.0543 63.7065 52.5037 63.7065C44.9527 63.7065 38.832 57.8213 38.832 50.5623C38.832 43.3024 44.9527 37.418 52.5037 37.418Z" fill="#D1D1D1"/>
</g>
</g>
<defs>
<radialGradient id="paint0_radial_33_1005" cx="0" cy="0" r="1" gradientUnits="userSpaceOnUse" gradientTransform="translate(27.8906 108.81) rotate(-90) scale(100.045 96.7866)">
<stop stop-color="#FFDD55"/>
<stop offset="0.1" stop-color="#FFDD55"/>
<stop offset="0.5" stop-color="#FF543E"/>
<stop offset="1" stop-color="#C837AB"/>
</radialGradient>
<radialGradient id="paint1_radial_33_1005" cx="0" cy="0" r="1" gradientUnits="userSpaceOnUse" gradientTransform="translate(-17.5879 7.36052) rotate(78.2388) scale(44.7911 191.441)">
<stop stop-color="#3771C8"/>
<stop offset="0.128" stop-color="#3771C8"/>
<stop offset="1" stop-color="#6600FF" stop-opacity="0"/>
</radialGradient>
<clipPath id="clip0_33_1005">
<rect width="105" height="100.946" fill="white" transform="translate(0 0.0888672)"/>
</clipPath>
</defs>
</svg>
