<svg width="104" height="103" viewBox="0 0 104 103" fill="none" xmlns="http://www.w3.org/2000/svg">
<g id="skill-icons:linkedin" clip-path="url(#clip0_33_1012)">
<g id="Group">
<path id="Vector" d="M79.625 0.108398H24.375C10.9131 0.108398 0 10.8038 0 23.9973V78.1454C0 91.3389 10.9131 102.034 24.375 102.034H79.625C93.0869 102.034 104 91.3389 104 78.1454V23.9973C104 10.8038 93.0869 0.108398 79.625 0.108398Z" fill="#D1D1D1"/>
<path id="Vector_2" d="M79.625 0.108398H24.375C10.9131 0.108398 0 10.8038 0 23.9973V78.1454C0 91.3389 10.9131 102.034 24.375 102.034H79.625C93.0869 102.034 104 91.3389 104 78.1454V23.9973C104 10.8038 93.0869 0.108398 79.625 0.108398Z" fill="#0A66C2"/>
<path id="Vector_3" d="M75.0405 86.7795H86.9314C87.3623 86.7795 87.7756 86.6118 88.0803 86.3132C88.385 86.0146 88.5563 85.6097 88.5564 85.1873L88.5625 60.5651C88.5625 47.6957 85.733 37.8037 70.3877 37.8037C64.5543 37.5911 59.0533 40.5382 56.0848 45.4593C56.0703 45.4832 56.0482 45.5018 56.0219 45.5123C55.9956 45.5227 55.9666 45.5244 55.9392 45.5172C55.9118 45.5099 55.8876 45.494 55.8702 45.472C55.8529 45.45 55.8434 45.423 55.8431 45.3952V40.5844C55.8431 40.162 55.6719 39.7569 55.3672 39.4583C55.0624 39.1596 54.6491 38.9918 54.2181 38.9918H42.9337C42.5027 38.9918 42.0894 39.1596 41.7847 39.4583C41.4799 39.7569 41.3087 40.162 41.3087 40.5844V85.185C41.3087 85.6073 41.4799 86.0124 41.7847 86.3111C42.0894 86.6098 42.5027 86.7775 42.9337 86.7775H54.8238C55.2548 86.7775 55.6681 86.6098 55.9729 86.3111C56.2776 86.0124 56.4488 85.6073 56.4488 85.185V63.1383C56.4488 56.9045 57.6554 50.8674 65.5411 50.8674C73.3147 50.8674 73.4155 58.0006 73.4155 63.542V85.187C73.4155 85.6093 73.5867 86.0144 73.8914 86.3131C74.1962 86.6118 74.6095 86.7795 75.0405 86.7795ZM15.4375 23.8494C15.4375 28.5731 19.4053 32.4598 24.2255 32.4598C29.0444 32.4594 33.0098 28.5703 33.0098 23.8474C33.009 19.1246 29.0432 15.2383 24.2239 15.2383C19.4033 15.2383 15.4375 19.1258 15.4375 23.8494ZM18.2646 86.7795H30.1706C30.6015 86.7795 31.0149 86.6118 31.3196 86.3131C31.6244 86.0144 31.7956 85.6093 31.7956 85.187V40.5844C31.7956 40.162 31.6244 39.7569 31.3196 39.4583C31.0149 39.1596 30.6015 38.9918 30.1706 38.9918H18.2646C17.8336 38.9918 17.4203 39.1596 17.1155 39.4583C16.8108 39.7569 16.6396 40.162 16.6396 40.5844V85.187C16.6396 85.6093 16.8108 86.0144 17.1155 86.3131C17.4203 86.6118 17.8336 86.7795 18.2646 86.7795Z" fill="#D1D1D1"/>
</g>
</g>
<defs>
<clipPath id="clip0_33_1012">
<rect width="104" height="101.926" fill="white" transform="translate(0 0.108398)"/>
</clipPath>
</defs>
</svg>
