<svg width="127" height="103" viewBox="0 0 127 103" fill="none" xmlns="http://www.w3.org/2000/svg">
<g id="logos:twitter" clip-path="url(#clip0_33_1010)">
<path id="Vector" d="M127 12.7734C122.244 14.8445 117.2 16.2039 112.035 16.8065C117.415 13.6366 121.546 8.61684 123.491 2.63589C118.377 5.61947 112.781 7.72159 106.946 8.85142C102.193 3.87363 95.4216 0.762695 87.9272 0.762695C73.5375 0.762695 61.8708 12.2311 61.8708 26.3759C61.8708 28.3836 62.1015 30.3383 62.5455 32.2134C40.891 31.1449 21.6922 20.9479 8.84089 5.45129C6.59854 9.23425 5.31366 13.6346 5.31366 18.3281C5.31366 27.2147 9.91394 35.0542 16.9049 39.6477C12.7672 39.5203 8.72058 38.4217 5.10282 36.4436C5.10133 36.5509 5.10133 36.6582 5.10133 36.766C5.10133 49.1761 14.0826 59.5286 26.0018 61.8817C22.1649 62.9075 18.1403 63.0576 14.2354 62.3206C17.5508 72.4966 27.1735 79.9016 38.5748 80.1089C29.6575 86.9784 18.4224 91.0735 6.21556 91.0735C4.11212 91.0735 2.03845 90.952 0 90.7155C11.5307 97.983 25.2264 102.223 39.9405 102.223C87.8666 102.223 114.074 63.1936 114.074 29.3463C114.074 28.2354 114.049 27.1308 113.998 26.0325C119.099 22.4075 123.502 17.9175 127 12.7734Z" fill="#55ACEE"/>
</g>
<defs>
<clipPath id="clip0_33_1010">
<rect width="127" height="101.926" fill="white" transform="translate(0 0.362305)"/>
</clipPath>
</defs>
</svg>
